<?xml version="1.0" standalone="no"?>
<!DOCTYPE svg PUBLIC "-//W3C//DTD SVG 20010904//EN"
 "http://www.w3.org/TR/2001/REC-SVG-20010904/DTD/svg10.dtd">
<svg version="1.0" xmlns="http://www.w3.org/2000/svg"
 width="300.000000pt" height="300.000000pt" viewBox="0 0 300.000000 300.000000"
 preserveAspectRatio="xMidYMid meet">
<metadata>
Created by potrace 1.10, written by Peter Selinger 2001-2011
</metadata>
<g transform="translate(0.000000,300.000000) scale(0.100000,-0.100000)"
fill="#000000" stroke="none">
<path d="M939 2478 c0 -2 -2 -10 -4 -18 -9 -41 -16 -70 -31 -125 -8 -33 -18
-71 -21 -85 -8 -36 -20 -47 -56 -54 -18 -3 -53 -17 -80 -30 l-47 -24 -120 75
c-66 42 -122 74 -125 71 -3 -2 4 -28 14 -56 11 -29 19 -54 19 -55 0 -1 5 -22
12 -47 7 -25 12 -46 11 -48 -1 -1 6 -16 14 -32 9 -17 11 -30 6 -30 -5 0 -33
-31 -62 -70 l-54 -70 -50 1 c-27 0 -90 4 -140 8 -50 4 -93 6 -98 4 -4 -2 7
-16 25 -31 18 -15 41 -36 53 -47 11 -11 46 -43 78 -72 49 -44 56 -55 48 -71
-12 -22 -19 -63 -20 -114 l-1 -38 -132 -66 c-138 -69 -143 -76 -63 -88 43 -7
235 -54 223 -55 -9 -1 29 -106 49 -138 13 -20 9 -29 -67 -138 -44 -65 -79
-119 -77 -121 2 -2 19 1 38 7 19 6 81 23 137 39 l104 29 54 -44 c29 -24 63
-49 74 -55 18 -9 20 -18 16 -58 -3 -26 -8 -92 -11 -146 l-6 -99 102 107 c91
95 106 107 128 101 14 -3 55 -8 91 -11 36 -3 68 -9 71 -12 4 -4 32 -56 64
-117 31 -60 61 -114 66 -119 10 -11 10 -12 45 137 23 96 32 121 50 130 l22 12
-28 33 c-22 27 -36 34 -73 37 -104 8 -195 50 -235 109 -16 24 -34 34 -74 43
-96 22 -170 134 -142 215 4 12 8 25 9 28 3 20 46 68 81 90 32 20 58 27 101 29
39 1 64 8 78 20 22 21 62 43 85 49 27 6 114 5 145 -2 27 -7 32 -4 55 34 14 23
44 55 68 72 l44 30 -39 26 c-41 28 -42 29 -77 87 -16 27 -22 51 -20 75 l4 35
-11 -33 c-14 -45 3 -94 51 -146 l38 -41 -50 -53 -49 -52 -73 0 c-80 0 -123
-11 -176 -47 -19 -12 -47 -23 -62 -23 -42 0 -131 -37 -164 -68 -68 -64 -85
-153 -44 -237 25 -52 65 -85 130 -111 25 -9 66 -37 92 -61 26 -23 63 -50 82
-60 20 -9 36 -21 36 -26 0 -6 30 -7 75 -2 51 4 75 3 75 -4 0 -6 -12 -13 -27
-17 -48 -10 -50 -14 -5 -10 38 4 43 2 39 -12 -3 -9 -17 -57 -31 -106 -14 -49
-27 -91 -30 -93 -2 -3 -23 29 -45 69 -48 87 -75 115 -116 121 -16 2 6 5 50 7
l80 3 -95 7 c-52 4 -111 10 -130 13 -25 5 -29 4 -15 -2 11 -5 32 -10 48 -10
15 -1 27 -6 27 -12 0 -6 -6 -9 -14 -6 -7 3 -34 8 -59 12 l-45 7 -75 -71 c-41
-39 -78 -71 -82 -71 -4 0 -5 39 -2 88 3 50 1 95 -4 105 -11 19 -59 69 -59 61
0 -3 -17 8 -38 24 -67 53 -69 53 -170 24 -50 -14 -94 -23 -97 -20 -3 3 17 41
45 84 27 44 50 86 50 95 0 23 -59 160 -77 181 -8 9 -29 20 -47 23 -64 13 -146
38 -146 44 0 4 36 24 80 46 80 39 110 72 110 121 0 10 5 44 12 76 l12 58 -79
80 -80 80 99 -5 c81 -3 104 -1 128 13 15 9 28 19 28 23 0 3 17 26 38 50 65 74
66 77 37 176 -13 47 -22 89 -19 92 3 3 22 -4 42 -16 20 -12 62 -35 92 -51 l55
-30 38 18 c86 42 97 29 12 -14 -49 -25 -108 -63 -130 -83 -46 -41 -31 -35 35
16 141 108 366 156 539 116 35 -9 66 -13 69 -11 2 3 -9 8 -24 11 -16 4 -40 11
-54 16 -20 7 -16 8 18 4 54 -7 82 8 152 79 30 31 58 56 62 56 4 0 8 -45 8
-100 0 -105 6 -120 56 -148 10 -6 16 -13 13 -16 -3 -4 -40 12 -81 34 -42 22
-80 40 -84 40 -5 0 15 -14 44 -30 29 -16 69 -43 88 -59 38 -34 74 -40 94 -16
16 19 4 35 -61 76 l-48 31 4 57 c3 31 7 93 11 139 3 45 3 82 1 82 -3 0 -50
-45 -104 -101 l-98 -100 -45 10 c-25 6 -66 11 -92 11 l-46 0 -67 125 c-58 109
-73 133 -76 123z m71 -178 c35 -70 60 -92 113 -101 33 -5 23 -7 -48 -8 -80 -1
-111 -5 -205 -27 l-25 -6 27 21 c17 14 32 41 43 78 42 147 37 137 53 116 7
-10 26 -43 42 -73z"/>
<path d="M2135 2236 c-108 -34 -192 -105 -223 -189 -11 -29 -22 -45 -26 -38
-14 22 -81 42 -137 40 -64 -2 -153 -39 -169 -69 -9 -16 -22 -19 -75 -19 -85 1
-143 -31 -174 -94 -26 -53 -26 -80 -2 -133 28 -61 111 -111 171 -102 24 4 30
1 30 -14 0 -30 67 -94 123 -118 35 -15 80 -24 138 -28 l86 -5 12 -33 c16 -45
69 -84 134 -99 57 -13 92 -11 153 9 37 12 42 12 65 -7 13 -11 49 -32 79 -46
47 -22 69 -26 150 -26 83 0 103 4 155 28 33 15 77 45 99 65 41 39 86 122 86
160 0 12 4 22 10 22 5 0 25 16 44 36 96 99 103 301 14 408 -50 61 -152 95
-197 67 -9 -6 -22 -4 -35 5 -12 7 -39 16 -61 20 -30 4 -49 17 -78 50 -41 47
-103 88 -159 105 -51 16 -169 19 -213 5z m243 -51 c34 -16 76 -46 104 -76 42
-45 56 -53 120 -68 40 -10 92 -16 114 -14 47 5 85 -10 128 -54 44 -43 63 -95
65 -178 2 -88 -19 -144 -79 -209 -21 -23 -48 -67 -60 -97 -26 -71 -85 -133
-158 -167 -79 -37 -202 -38 -277 -2 -27 13 -52 26 -55 29 -3 4 -17 12 -33 20
-23 12 -35 13 -78 2 -96 -25 -168 -11 -226 42 -13 11 -23 26 -23 32 0 29 -39
46 -127 55 -127 13 -186 44 -229 118 -11 19 -29 35 -44 38 -86 18 -112 29
-140 61 -16 18 -32 44 -36 58 -9 37 14 93 51 122 38 31 52 35 120 37 40 2 63
11 114 44 55 36 72 42 118 42 29 0 70 -7 90 -15 58 -24 69 -20 107 43 36 59
84 110 127 132 85 46 213 48 307 5z"/>
<path d="M999 2136 c-3 -3 -26 -8 -51 -11 -70 -8 -162 -42 -226 -82 -64 -40
-139 -108 -153 -138 -5 -11 -18 -35 -30 -54 -36 -61 -14 -42 30 25 98 148 283
238 491 238 116 0 198 -20 303 -74 42 -21 84 -37 92 -34 20 8 9 24 -17 24 -11
0 -48 15 -82 33 -34 19 -75 37 -92 41 -16 4 -47 11 -69 17 -48 12 -188 23
-196 15z"/>
<path d="M548 1963 c-14 -16 -33 -41 -43 -58 l-17 -30 26 30 c33 36 69 85 64
85 -3 0 -16 -12 -30 -27z"/>
<path d="M1404 1556 c-52 -35 -114 -115 -114 -147 0 -17 -3 -17 -37 4 -69 40
-201 19 -245 -40 -10 -14 -28 -18 -74 -18 -52 -1 -67 -5 -99 -29 -70 -53 -81
-133 -28 -196 34 -41 73 -60 123 -60 34 0 40 -3 40 -21 0 -32 62 -85 122 -105
29 -10 81 -17 115 -17 57 0 62 -2 67 -23 4 -14 20 -38 38 -54 51 -49 138 -63
215 -36 38 13 41 13 71 -11 18 -13 57 -33 87 -44 165 -58 351 29 397 185 7 23
26 52 42 66 46 39 76 114 76 192 0 88 -5 99 -37 87 -43 -16 -144 -10 -193 12
-49 22 -120 85 -120 106 0 9 -15 13 -42 14 -131 2 -264 63 -303 139 -20 39
-39 38 -101 -4z m90 -31 c40 -60 150 -113 270 -129 41 -6 59 -16 107 -60 46
-43 70 -57 123 -71 40 -11 83 -16 110 -13 56 7 69 -6 68 -67 -1 -52 -31 -115
-72 -152 -16 -14 -37 -48 -46 -76 -21 -63 -85 -134 -144 -160 -33 -15 -66 -20
-122 -20 -70 1 -84 4 -145 38 l-68 38 -62 -13 c-95 -18 -173 8 -210 71 -20 33
-35 40 -101 43 -26 1 -66 9 -90 16 -46 14 -122 73 -122 95 0 13 -32 28 -84 40
-17 3 -42 15 -57 25 -94 68 -31 200 96 200 41 0 59 6 99 35 61 43 115 52 179
30 60 -20 78 -15 105 33 36 65 99 122 133 122 9 0 24 -11 33 -25z"/>
<path d="M539 1062 c40 -52 171 -158 171 -139 0 2 -19 17 -42 32 -24 16 -70
56 -103 89 -45 47 -52 51 -26 18z"/>
</g>
</svg>
